<?xml version="1.0" encoding="utf-8"?>
<!-- Generator: Adobe Illustrator 26.0.2, SVG Export Plug-In . SVG Version: 6.00 Build 0)  -->
<svg version="1.1" id="Layer_1" xmlns="http://www.w3.org/2000/svg" xmlns:xlink="http://www.w3.org/1999/xlink" x="0px" y="0px"
	 viewBox="0 0 200 350" style="enable-background:new 0 0 200 350;" xml:space="preserve">
<style type="text/css">
	.st0{fill:#FFFFFF;}
</style>
<g>
	<path class="st0" d="M63.5,194.8c-7.3,0-14.1,0-20.8,0c-5.7,0-11.5,0.1-17.2,0c-6-0.1-8-1.9-8-7.9c-0.1-15.6-0.1-31.3,0-46.9
		c0.1-5.9,2.2-7.8,8.1-7.8c11.1-0.1,22.2,0,33.3,0c1.4,0,2.7,0,4.6,0c0-1.7,0-3.1,0-4.6c0.3-14.2-0.3-28.5,0.9-42.7
		c3.1-36.1,30.6-61.8,66.7-63c14.7-0.5,29.4-0.2,44.2-0.2c5.2,0,7.3,2.1,7.3,7.3c0.1,14.6,0.1,29.3,0,43.9c0,5.6-2,7.6-7.7,7.8
		c-10.1,0.2-20.2,0.2-30.3,0.4c-11.3,0.2-16.1,4.6-16.3,15.8c-0.2,11.3-0.1,22.7-0.1,34.5c1.7,0,3,0,4.4,0c12.9,0,25.7,0,38.6,0
		c8.1,0,10,1.9,10,9.9c0,14.9,0,29.8,0,44.6c0,6.7-1.8,8.4-8.5,8.5c-14.6,0.1-29.2,0-44.5,0c0,1.7,0,3.3,0,4.8
		c0,39.1,0,78.3,0,117.4c0,10.8-1.1,11.9-12.1,11.9c-14.3,0-28.7,0-43,0c-7.7,0-9.5-1.9-9.5-9.5c0-39.8,0-79.5,0-119.3
		C63.5,198.2,63.5,196.8,63.5,194.8z"/>
</g>
</svg>
