<?xml version="1.0" encoding="utf-8"?>
<!-- Generator: Adobe Illustrator 26.0.2, SVG Export Plug-In . SVG Version: 6.00 Build 0)  -->
<svg version="1.1" id="Layer_1" xmlns="http://www.w3.org/2000/svg" xmlns:xlink="http://www.w3.org/1999/xlink" x="0px" y="0px"
	 viewBox="0 0 305 305" style="enable-background:new 0 0 305 305;" xml:space="preserve">
<style type="text/css">
	.st0{fill:#FFFFFF;}
</style>
<g>
	<path class="st0" d="M0.8,248.6c33.5,2.9,63.7-5.2,91.1-25.9C63,220,44.2,205.5,33.4,178.8c9.5,0,18.3,0,27,0
		c0.1-0.4,0.2-0.9,0.2-1.3c-14.3-3.6-26-11-35.1-22.5c-9-11.5-13.6-24.4-13.7-39.6c8.8,4.2,17.5,7.3,27.7,7.4
		C23.7,110,13.9,94.6,12.3,74.6c-1-12.5,2.3-24.1,8.6-35.4c33.9,39.7,76.2,62.1,127.7,65.3c0-7-0.4-13.5,0.1-19.9
		c2.6-32.5,30.4-57.6,63.2-57.1c16.7,0.3,31,6.3,43,17.9c1.5,1.5,2.8,1.9,4.9,1.4c11.7-2.9,22.8-6.9,33.3-12.7
		c0.8-0.4,1.7-0.8,3.4-1.5c-4.9,14.8-13.6,25.4-25.8,33.5c0.2,0.4,0.4,0.8,0.6,1.2c10.9-3,21.8-6.1,33-9.2c-0.9,1.3-1.7,2.7-2.7,4
		C294.4,72,286,80.6,276.3,88c-2.2,1.6-2.8,3.2-2.8,5.9c2.2,70.1-39.3,139.2-102.5,167c-56.9,25-113,21.7-167.2-9.4
		c-1-0.6-1.9-1.2-2.8-1.8C1,249.5,1,249.2,0.8,248.6z"/>
</g>
</svg>
