<?xml version="1.0" encoding="utf-8"?>
<!-- Generator: Adobe Illustrator 26.0.2, SVG Export Plug-In . SVG Version: 6.00 Build 0)  -->
<svg version="1.1" id="Layer_1" xmlns="http://www.w3.org/2000/svg" xmlns:xlink="http://www.w3.org/1999/xlink" x="0px" y="0px"
	 viewBox="0 0 1204.3 572" style="enable-background:new 0 0 1204.3 572;" xml:space="preserve">
<style type="text/css">
	.st0{fill:#FFFFFF;stroke:#E6E6E6;stroke-miterlimit:10;}
	.st1{fill:#0E9C49;}
	.st2{fill:#4D4D4D;}
</style>
<path class="st0" d="M868.4,458.2h-39.1v26.6h43.2l-2.2,16.6h-58.8v-99.1h58.7V419h-40.9v22.4h39.1V458.2z"/>
<path class="st0" d="M943.1,396.2v84.3c0,8.7,0.1,16.5,0.3,20.8H926c-0.3-2-0.7-6.4-0.7-8.8c-3.2,6.5-8.3,10.3-19,10.3
	c-17.3,0-26.3-15.6-26.3-38.8c0-22.6,10.9-39.1,29.2-39.1c10.1,0,14.6,3.9,16,6.9v-35.7H943.1z M912.3,486.9
	c11.6,0,13.8-8.7,13.8-23.3c0-16-2.9-22.6-13.3-22.6c-8.8,0-14.6,7.4-14.6,22.3C898.2,477.4,902.5,486.9,912.3,486.9z"/>
<path class="st0" d="M960.5,414.3v-18.1h17.9v18.1H960.5z M960.5,426.5h17.9v74.9h-17.9V426.5z"/>
<path class="st0" d="M987.6,426.5h9.6v-20.3h17.7v20.3h12.1v15.3H1015v38.5c0,5.1,1.2,7.2,6.7,7.2c1.4,0,2.7-0.1,4.1-0.3v13.5
	c-3.5,1.3-8.5,1.4-10.9,1.4c-13.1,0-17.6-5.8-17.6-19.7v-40.7h-9.6L987.6,426.5z"/>
<path class="st0" d="M1037.5,414.3v-18.1h17.9v18.1H1037.5z M1037.5,426.5h17.9v74.9h-17.9V426.5z"/>
<path class="st0" d="M1132.8,462.9c0,21.8-9.4,39.9-32.6,39.9c-23.8,0-32-19.2-32-39.5c0-18.7,9.6-38.3,33-38.3
	C1122.9,425,1132.8,442.7,1132.8,462.9z M1086.3,462.8c0,16,5,24.6,14.6,24.6c8.9,0,13.9-8.5,13.9-24.3c0-14.9-4.7-22.6-14.4-22.6
	C1091.3,440.5,1086.3,449.2,1086.3,462.8z"/>
<path class="st0" d="M1145.5,449.9c0-15.5-0.1-20.1-0.3-23.4h17.3c0.4,3.2,0.6,6.4,0.7,9.7c2.8-5.8,9.2-11.1,18.9-11.1
	c14.3,0,21.5,10.1,21.5,27.3v49h-17.9v-45.2c0-8.5-2-14.9-10.4-14.9c-8.1,0-12.1,5.2-12.1,18.4v41.8h-17.9L1145.5,449.9z"/>
<path class="st0" d="M305.5,340.2l-16.6-122.3h19.9c2.7,26.4,6.5,67,7.4,90.1h0.4c2.7-25.8,7.8-63.4,11.2-90.1h18
	c3.6,27.7,8.7,62.3,11,89.2h0.4c1.4-23.8,5-61.5,7.8-89.2h18.8L366,340.2h-19c-3.4-27.5-8.1-60.1-10.8-85.2h-0.4
	c-2.7,25.6-7.9,58.8-11.5,85.2H305.5z"/>
<path class="st0" d="M405.9,307.4l-4.2,32.8h-19l19.5-122.3h26.2l20.3,122.3h-19.5l-4.7-32.8H405.9z M422.3,290.2
	c-2.9-20.9-5.4-40.7-6.8-54.4h-0.8c-0.4,10.1-4.2,36.3-6.5,54.4H422.3z"/>
<path class="st0" d="M462,235.4h-19.3v-17.6h57.4v17.6h-19.5v104.8H462V235.4z"/>
<path class="st0" d="M560.6,303.6v4.8c0,14.1-2.3,33.7-27.8,33.7c-22.4,0-27.1-14.3-27.1-32.8v-61.7c0-18.9,8.5-31.5,27.4-31.5
	c22.6,0,26.9,15.2,26.9,32.2v5.5h-18.6V246c0-8.2-2-12.8-8.5-12.8c-6.3,0-8.3,4.4-8.3,12.8v64.7c0,8.1,1.6,14.3,8.7,14.3
	c6.7,0,8.5-5.5,8.5-14.5v-7L560.6,303.6z"/>
<path class="st0" d="M571.4,217.9H590v48.3h20v-48.3h18.6v122.3H610v-56.8h-20v56.8h-18.6V217.9z"/>
<path class="st0" d="M687.1,217.9v122.3h-18.6V217.9H687.1z"/>
<path class="st0" d="M714.7,235.4h-19.3v-17.6h57.4v17.6h-19.5v104.8h-18.6V235.4z"/>
<path class="st0" d="M840.7,250.3v57.1c0,23.5-9.8,34.6-30.3,34.6c-19.5,0-28.3-11.3-28.3-34.2v-57.5c0-23.5,11.5-34.3,29.6-34.3
	C829.9,216,840.7,226.8,840.7,250.3z M801,248.5V310c0,10.3,3.6,15,10.3,15c7.2,0,10.5-4.6,10.5-15.2v-61.5c0-9.7-2.9-15-10.5-15
	C804.6,233.2,801,238.2,801,248.5z"/>
<path class="st0" d="M872.3,217.9v93c0,9,2.9,14.1,10.1,14.1c7.4,0,9.7-5.9,9.7-14.1v-93h18.6v92.7c0,19.4-8.5,31.5-28.7,31.5
	c-19.1,0-28.3-10.6-28.3-31.5v-92.7H872.3z"/>
<path class="st0" d="M938.4,235.4H919v-17.6h57.4v17.6H957v104.8h-18.6V235.4z"/>
<path class="st0" d="M998.8,304.1v7.7c0,9,2.7,14.1,9.8,14.1c7.2,0,9.2-7,9.2-14.8c0-13.2-2.9-17.2-15.7-27.7
	c-13-10.4-20-17-20-35.2c0-16.1,4.9-32.4,26.7-32.4c22.2,0,25.6,16.1,25.6,29.5v6.6H1016v-6c0-8.6-1.4-13.7-7.6-13.7
	s-7.8,5.3-7.8,13.4c0,8.8,1.6,13,12.3,20.9c18,13.6,23.6,21.2,23.6,41.8c0,17.4-5.9,33.9-28.5,33.9c-22.4,0-27.8-14.5-27.8-30.6
	v-7.3L998.8,304.1z"/>
<path class="st0" d="M1066.7,217.9v122.3h-18.6V217.9H1066.7z"/>
<path class="st0" d="M1083.1,217.9h25.8c25.6,0,31.8,13.4,31.8,36.1V301c0,18.7-3.1,39.2-31.8,39.2h-25.8V217.9z M1101.7,324h6
	c12.3,0,14.1-7.9,14.1-20.5v-51.1c0-11.2-1.8-18.3-14.1-18.3h-6V324z"/>
<path class="st0" d="M1199.5,284.3H1173v38.5h30.7l-2.3,17.4h-46.9V217.9h46.6v17.6h-28V267h26.5L1199.5,284.3z"/>
<path class="st1" d="M290.8,422.5c-1.2-19.8-1.3-20.6-1.8-22.9c10.2-2.3,20.7-3.4,31.2-3.4c15.1,0,27.8,4,35,10.9
	c5.7,5.2,8.6,11.5,8.6,18.3c0,8.1-4,15.2-11.2,19.8c10.9,4.9,16.6,13.2,16.6,24.4c0,20.6-18.6,34-47.3,34c-11,0-21.9-1.3-32.5-4
	c1-4.5,1.8-17.5,1.8-27.2l-0.3-49.6V422.5z M314.8,437c2.2,0.3,4.4,0.4,6.5,0.5c10.7,0,18.5-4.8,18.5-11.4c0-6.3-6.9-10.4-17.3-10.4
	c-2.6,0-5.3,0.2-7.9,0.8L314.8,437z M315.1,482.6c3.4,0.9,6.9,1.3,10.4,1.2c11.4,0,18.5-5.1,18.5-13.4c0-8.6-7.7-14.1-19.6-14.1
	c-3.2,0-6.3,0.4-9.4,1.1L315.1,482.6z"/>
<path class="st1" d="M452.1,441.4c6.2,6.6,9,14.4,9,24.3c0,20.9-19.1,37.9-42.6,37.9c-23.1,0-40.6-16-40.6-36.9
	c0-21.8,19-39.3,42.3-39.3C432.3,427.4,443.9,432.5,452.1,441.4z M400.8,466.1c0,9.8,8.4,18.3,17.9,18.3c10.2,0,19.3-9.1,19.3-19
	c0-10.4-7.7-18.3-17.8-18.3c-10.5-0.2-19.3,8.2-19.4,18.7C400.8,466,400.8,466.1,400.8,466.1L400.8,466.1z"/>
<path class="st1" d="M518.5,451.8c-6-4.1-13.4-6.9-18.5-6.9c-3.9,0-6.9,2.5-6.9,5.4c0,2.3,1.7,3.5,6.2,4.6c6,1.7,10.1,2.9,13.9,4.8
	c8.9,4,13.9,11.1,13.9,19.5c0,14-13.2,24.6-30.7,24.6c-9.9,0-19.5-3.4-28.2-9.7l9.2-14.4c5.5,4.4,12.4,6.9,19.5,6.9
	c4.9,0,7.5-1.8,7.5-4.9s-2-4.8-6-5.7c-5.7-1.2-7.7-1.7-11.1-3.1c-11.7-4.3-17.4-11.2-17.4-20.6c0-13.7,13.6-24.3,31-24.3
	c9.1,0,16.8,2.5,26.3,8.5L518.5,451.8z"/>
<path class="st1" d="M585.6,452.6h-19.3l-0.5,16.9v3.2c0,4,0.3,5.7,1.7,7.4c1.8,2.3,4.6,3.7,7.5,3.8c2.5,0,4.9-0.6,9.1-2.5l5.9,14.1
	c-7,4.9-13.9,7.2-21,7.2c-14.1,0-25.5-9.7-25.5-21.5l0.2-29.2l-10.6-0.3l0.2-17l10.6-0.2l0.2-10.5c-0.2-4.3-0.3-8.5-0.5-12l23.5,0.2
	c0,1.8-0.1,3.6-0.3,5.4c-0.2,2.5-0.2,3.8-0.2,5.7l-0.3,11.5l19.6,0.3L585.6,452.6z"/>
<path class="st1" d="M666.9,441.4c6.2,6.6,9.1,14.4,9.1,24.3c0,20.9-19.1,37.9-42.6,37.9c-23.1,0-40.6-16-40.6-36.9
	c0-21.8,19-39.3,42.3-39.3C647.2,427.4,658.7,432.5,666.9,441.4z M615.6,466.1c0,9.8,8.4,18.3,18,18.3c10.2,0,19.3-9.1,19.3-19
	c0-10.4-7.7-18.3-17.8-18.3c-10.6-0.2-19.3,8.2-19.5,18.7C615.6,465.9,615.6,466,615.6,466.1L615.6,466.1z"/>
<path class="st1" d="M689.2,459.2c0-7.5-1.3-16.3-3.2-19c15.6-7.7,27.7-10.9,41.6-10.9c14.9,0,26,4.3,31.4,12
	c3.2,4.6,4.2,8.5,4.2,18.1c0,1.2,0,2.5-0.2,3.7v1.1l-0.2,24v1.4c0,5.1,0.2,10.9,0.5,12.1h-25c0.6-5.8,0.9-11.6,0.8-17.4v-18.2
	c0-5.7-0.2-8.3-1-10.5c-2-4.9-6-7.4-12.9-7.4c-4.2,0-8.4,0.9-12.2,2.7l-0.3,34.5c0,5.4,0.3,10.8,0.8,16.1h-25.2
	c0.7-4.7,1-9.5,0.8-14.3V459.2z"/>
<path class="st2" d="M283.3,459.3C187.6,459.3,110,381.8,110,286s77.6-173.3,173.3-173.3c56.2,0,109,27.3,141.5,73.2
	c3.5,4.9,6.7,10,9.7,15.3c0.4,0.7,1.3,1,2.1,0.5c0.7-0.4,1-1.3,0.5-2.1c-12.5-22.2-29.7-41.4-50.2-56.4
	c-20.8-15.1-44.7-25.5-69.9-30.4c-25-4.8-50.7-4.2-75.4,1.8c-22.8,5.6-44.3,15.6-63.2,29.7c-18.5,13.8-34.2,31-46.2,50.8
	c-12.2,20.3-20.2,42.9-23.5,66.4C98.7,334,134.2,405,198.1,440.4c20.8,11.5,43.6,18.6,67.2,21c6,0.6,12,0.9,18,0.9
	c0.8,0,1.5-0.7,1.5-1.5S284.1,459.3,283.3,459.3L283.3,459.3z"/>
<path class="st2" d="M433.8,517.6c-84.7,52-193.4,55.2-280.7,7.5C77.9,484,24.4,408.6,10.9,323.8c-7-43.7-3.5-88.5,10.1-130.6
	c3.4-10.4,7.3-20.5,11.9-30.4c2.4-5.1,4.9-10.1,7.5-15.1c2.4-4.6-3.6,6-0.2,0.5c0.7-1.1,1.4-2.2,2.1-3.4c1.8-2.9,3.7-5.8,5.6-8.6
	c11.7-17.4,25.4-33.4,40.7-47.8c64.7-60.6,156.2-87.1,243.2-70.7c88.1,16.6,164.5,76.5,202,158c4.7,10.2,8.7,20.6,12.2,31.3
	c-0.3-0.8,3.3-5.6,3.8-6.5c0.6-1,4-5.4,3.6-6.6C524.9,106,453,36.1,364,10.7c-87.6-25-184-5.1-254.4,52.7
	c-33.6,27.6-58.8,62.5-78.6,101C10.7,204,0,248,0,292.7c0,88.7,43.2,173.5,114.7,225.9c79.2,57.9,186,69.9,276,30.9
	c12.3-5.4,24.2-11.6,35.7-18.6c1.5-0.9,2.9-5,3.8-6.5S432.3,518.6,433.8,517.6L433.8,517.6z"/>
</svg>
