<svg id="Layer_1" data-name="Layer 1" xmlns="http://www.w3.org/2000/svg" viewBox="0 0 1204.27 571.98"><defs><style>.cls-1{fill:#fff;stroke:#e6e6e6;stroke-miterlimit:10;}.cls-2{fill:#e72d00;}.cls-3{fill:#4d4d4d;}</style></defs><path class="cls-1" d="M1014.68,922.11H975.54v26.61h43.21l-2.23,16.64H957.68V866.27h58.71v16.64H975.54v22.42h39.14Z" transform="translate(-146.3 -463.95)"/><path class="cls-1" d="M1089.42,860.19v84.34c0,8.68.13,16.49.26,20.83h-17.34c-.26-2-.65-6.37-.65-8.82-3.16,6.5-8.28,10.26-19,10.26-17.34,0-26.27-15.62-26.27-38.76,0-22.57,10.9-39.06,29.16-39.06,10.11,0,14.58,3.91,16,6.94V860.19Zm-30.87,90.7c11.56,0,13.79-8.68,13.79-23.29,0-16.05-2.89-22.56-13.26-22.56-8.8,0-14.58,7.37-14.58,22.27C1044.5,941.34,1048.83,950.89,1058.55,950.89Z" transform="translate(-146.3 -463.95)"/><path class="cls-1" d="M1106.75,878.28V860.19h17.87v18.09Zm0,12.15h17.87v74.93h-17.87Z" transform="translate(-146.3 -463.95)"/><path class="cls-1" d="M1133.94,890.43h9.59V870.17h17.73v20.26h12.08v15.33h-12.08v38.48c0,5.06,1.18,7.23,6.7,7.23a20.54,20.54,0,0,0,4.07-.29v13.46c-3.55,1.3-8.54,1.44-10.9,1.44-13.14,0-17.6-5.79-17.6-19.67V905.76h-9.59Z" transform="translate(-146.3 -463.95)"/><path class="cls-1" d="M1183.85,878.28V860.19h17.86v18.09Zm0,12.15h17.86v74.93h-17.86Z" transform="translate(-146.3 -463.95)"/><path class="cls-1" d="M1279.07,926.88c0,21.84-9.45,39.92-32.57,39.92-23.77,0-32-19.23-32-39.49,0-18.66,9.59-38.33,33-38.33C1269.22,889,1279.07,906.63,1279.07,926.88Zm-46.49-.14c0,16,5,24.59,14.58,24.59,8.93,0,13.92-8.54,13.92-24.31,0-14.89-4.73-22.56-14.45-22.56C1237.57,904.46,1232.58,913.14,1232.58,926.74Z" transform="translate(-146.3 -463.95)"/><path class="cls-1" d="M1291.81,913.86c0-15.48-.13-20.1-.26-23.43h17.34a77.31,77.31,0,0,1,.66,9.69c2.75-5.79,9.19-11.14,18.91-11.14,14.32,0,21.54,10.13,21.54,27.34v49h-17.86V920.08c0-8.53-2-14.9-10.38-14.9-8.14,0-12.08,5.21-12.08,18.37v41.81h-17.87Z" transform="translate(-146.3 -463.95)"/><path class="cls-1" d="M451.82,804.16,435.21,681.81h19.85c2.71,26.37,6.5,67,7.4,90.11h.37c2.7-25.82,7.76-63.37,11.19-90.11h18.05c3.61,27.65,8.66,62.27,11,89.2h.36c1.44-23.81,5.05-61.55,7.76-89.2H530L512.28,804.16H493.33c-3.43-27.47-8.12-60.08-10.83-85.17h-.36c-2.71,25.64-7.94,58.8-11.55,85.17Z" transform="translate(-146.3 -463.95)"/><path class="cls-1" d="M552.18,771.37,548,804.16h-19l19.5-122.35h26.17L595,804.16h-19.5l-4.69-32.79Zm16.42-17.21c-2.88-20.88-5.41-40.67-6.85-54.4H561c-.36,10.07-4.15,36.26-6.5,54.4Z" transform="translate(-146.3 -463.95)"/><path class="cls-1" d="M608.32,699.39H589V681.81h57.4v17.58H626.91V804.16H608.32Z" transform="translate(-146.3 -463.95)"/><path class="cls-1" d="M706.87,767.53v4.76c0,14.1-2.35,33.7-27.8,33.7C656.69,806,652,791.71,652,773.21V711.48c0-18.87,8.48-31.51,27.43-31.51,22.57,0,26.9,15.21,26.9,32.24v5.5H687.74V710c0-8.24-2-12.82-8.49-12.82-6.31,0-8.3,4.4-8.3,12.82v64.66c0,8.06,1.63,14.29,8.67,14.29,6.67,0,8.48-5.5,8.48-14.47v-7Z" transform="translate(-146.3 -463.95)"/><path class="cls-1" d="M717.7,681.81h18.59v48.35h20V681.81h18.59V804.16H756.33V747.38h-20v56.78H717.7Z" transform="translate(-146.3 -463.95)"/><path class="cls-1" d="M833.4,681.81V804.16H814.81V681.81Z" transform="translate(-146.3 -463.95)"/><path class="cls-1" d="M861,699.39H841.71V681.81h57.4v17.58h-19.5V804.16H861Z" transform="translate(-146.3 -463.95)"/><path class="cls-1" d="M987,714.23v57.14c0,23.45-9.75,34.62-30.32,34.62-19.5,0-28.34-11.35-28.34-34.25V714.23c0-23.45,11.55-34.26,29.6-34.26C976.18,680,987,690.78,987,714.23ZM947.3,712.4v61.54c0,10.26,3.61,15,10.29,15,7.22,0,10.47-4.58,10.47-15.2V712.21c0-9.71-2.89-15-10.47-15C950.91,697.19,947.3,702.14,947.3,712.4Z" transform="translate(-146.3 -463.95)"/><path class="cls-1" d="M1018.6,681.81v93.05c0,9,2.89,14.1,10.11,14.1,7.4,0,9.74-5.86,9.74-14.1V681.81h18.6v92.68c0,19.41-8.49,31.5-28.7,31.5-19.14,0-28.34-10.62-28.34-31.5V681.81Z" transform="translate(-146.3 -463.95)"/><path class="cls-1" d="M1084.66,699.39h-19.31V681.81h57.4v17.58h-19.5V804.16h-18.59Z" transform="translate(-146.3 -463.95)"/><path class="cls-1" d="M1145.13,768.08v7.69c0,9,2.71,14.1,9.75,14.1,7.22,0,9.2-7,9.2-14.83,0-13.19-2.89-17.22-15.7-27.66-13-10.44-20-17-20-35.17,0-16.12,4.88-32.42,26.72-32.42,22.2,0,25.63,16.12,25.63,29.49v6.59h-18.41v-6c0-8.61-1.45-13.74-7.58-13.74s-7.77,5.31-7.77,13.37c0,8.8,1.63,13,12.28,20.88,18,13.56,23.64,21.25,23.64,41.77,0,17.4-5.95,33.88-28.51,33.88-22.39,0-27.8-14.47-27.8-30.59v-7.32Z" transform="translate(-146.3 -463.95)"/><path class="cls-1" d="M1213,681.81V804.16h-18.59V681.81Z" transform="translate(-146.3 -463.95)"/><path class="cls-1" d="M1229.42,681.81h25.81c25.63,0,31.77,13.37,31.77,36.08V765c0,18.69-3.07,39.2-31.77,39.2h-25.81ZM1248,788h6c12.27,0,14.08-7.87,14.08-20.51V716.42c0-11.17-1.81-18.31-14.08-18.31h-6Z" transform="translate(-146.3 -463.95)"/><path class="cls-1" d="M1345.85,748.3h-26.54v38.46H1350l-2.35,17.4h-46.93V681.81h46.57v17.58h-28V730.9h26.54Z" transform="translate(-146.3 -463.95)"/><path class="cls-2" d="M437.05,886.46c-1.17-19.82-1.34-20.58-1.84-22.89a145,145,0,0,1,31.19-3.38c15.1,0,27.84,4,35.05,10.91,5.71,5.22,8.56,11.52,8.56,18.28,0,8.14-4,15.21-11.24,19.82,10.9,4.91,16.6,13.21,16.6,24.42,0,20.59-18.61,34-47.29,34a134.78,134.78,0,0,1-32.54-4c1-4.46,1.85-17.51,1.85-27.19l-.34-49.62Zm24,14.44a52.13,52.13,0,0,0,6.54.46c10.73,0,18.45-4.76,18.45-11.37,0-6.29-6.88-10.44-17.28-10.44a35.84,35.84,0,0,0-7.88.77Zm.33,45.63a41.06,41.06,0,0,0,10.4,1.23c11.4,0,18.45-5.07,18.45-13.37,0-8.6-7.72-14.13-19.62-14.13a41.72,41.72,0,0,0-9.4,1.07Z" transform="translate(-146.3 -463.95)"/><path class="cls-2" d="M598.39,905.36c6.2,6.6,9.05,14.44,9.05,24.27,0,20.89-19.12,37.94-42.6,37.94-23.14,0-40.58-16-40.58-36.86,0-21.82,19-39.33,42.26-39.33A43.12,43.12,0,0,1,598.39,905.36Zm-51.32,24.73c0,9.83,8.38,18.28,17.94,18.28,10.23,0,19.29-9.06,19.29-19,0-10.44-7.72-18.28-17.78-18.28A19.1,19.1,0,0,0,547.07,930.09Z" transform="translate(-146.3 -463.95)"/><path class="cls-2" d="M664.8,915.8c-6-4.14-13.42-6.91-18.45-6.91-3.86,0-6.88,2.46-6.88,5.38,0,2.3,1.68,3.53,6.21,4.61,6,1.69,10.06,2.91,13.92,4.76,8.89,4,13.92,11.06,13.92,19.51,0,14-13.25,24.58-30.69,24.58-9.9,0-19.46-3.38-28.18-9.68l9.23-14.44a31.44,31.44,0,0,0,19.45,6.91c4.86,0,7.55-1.84,7.55-4.91s-2-4.77-6-5.69c-5.7-1.23-7.72-1.69-11.07-3.07-11.74-4.3-17.44-11.22-17.44-20.59,0-13.67,13.58-24.27,31-24.27,9.06,0,16.78,2.46,26.34,8.45Z" transform="translate(-146.3 -463.95)"/><path class="cls-2" d="M731.87,916.57H712.59l-.51,16.9v3.23c0,4,.34,5.68,1.68,7.37a10,10,0,0,0,7.55,3.84c2.52,0,4.86-.61,9.06-2.46l5.87,14.14c-7,4.91-13.92,7.21-21,7.21-14.08,0-25.49-9.67-25.49-21.5l.17-29.19-10.57-.31.17-17,10.57-.15.16-10.45c-.16-4.3-.33-8.45-.5-12l23.48.15a43.27,43.27,0,0,1-.34,5.38c-.16,2.46-.16,3.84-.16,5.68l-.34,11.53,19.62.3Z" transform="translate(-146.3 -463.95)"/><path class="cls-2" d="M813.21,905.36c6.21,6.6,9.06,14.44,9.06,24.27,0,20.89-19.12,37.94-42.6,37.94-23.14,0-40.58-16-40.58-36.86,0-21.82,18.95-39.33,42.26-39.33A43.11,43.11,0,0,1,813.21,905.36Zm-51.32,24.73c0,9.83,8.39,18.28,18,18.28,10.23,0,19.29-9.06,19.29-19,0-10.44-7.72-18.28-17.78-18.28A19.11,19.11,0,0,0,761.89,930.09Z" transform="translate(-146.3 -463.95)"/><path class="cls-2" d="M835.52,923.18c0-7.53-1.35-16.29-3.19-19,15.6-7.68,27.67-10.91,41.59-10.91,14.93,0,26,4.3,31.36,12,3.19,4.61,4.19,8.45,4.19,18.13a26.18,26.18,0,0,1-.16,3.69v1.07l-.17,24v1.38c0,5.07.17,10.91.5,12.14h-25a167.7,167.7,0,0,0,.84-17.36V930.09c0-5.68-.17-8.3-1-10.45-2-4.91-6-7.37-12.92-7.37A27.76,27.76,0,0,0,859.33,915L859,949.45a148.58,148.58,0,0,0,.84,16.13H834.68a76.54,76.54,0,0,0,.84-14.29Z" transform="translate(-146.3 -463.95)"/><path class="cls-3" d="M429.65,923.28A173.31,173.31,0,1,1,571.1,649.86a177.8,177.8,0,0,1,9.69,15.31,1.5,1.5,0,0,0,2.59-1.52,178.35,178.35,0,0,0-50.22-56.36,175.66,175.66,0,0,0-69.89-30.37,178.21,178.21,0,0,0-75.37,1.77,175.72,175.72,0,0,0-63.19,29.66,177.85,177.85,0,0,0-46.17,50.82,175.36,175.36,0,0,0-23.48,66.39,176.45,176.45,0,0,0,89.36,178.78,176,176,0,0,0,67.18,21,178.4,178.4,0,0,0,18,.92,1.5,1.5,0,0,0,0-3Z" transform="translate(-146.3 -463.95)"/><path class="cls-3" d="M580.13,981.56c-84.71,52-193.37,55.18-280.65,7.5-75.31-41.14-128.8-116.5-142.29-201.31a281.66,281.66,0,0,1,10.1-130.64,275.56,275.56,0,0,1,11.87-30.39c2.35-5.11,4.94-10.07,7.51-15.07,2.36-4.59-3.64,6-.24.47.69-1.12,1.37-2.25,2.06-3.36,1.81-2.9,3.66-5.77,5.58-8.6A280.58,280.58,0,0,1,234.8,552.4c64.66-60.57,156.17-87.11,243.25-70.69,88.13,16.63,164.55,76.52,202.05,158a284.66,284.66,0,0,1,12.17,31.28c-.28-.85,3.26-5.59,3.76-6.49.6-1.05,4-5.37,3.64-6.56-28.49-88-100.32-157.91-189.33-183.34-87.56-25-184-5.07-254.36,52.71-33.61,27.6-58.75,62.5-78.59,101a280.42,280.42,0,0,0-31.09,128.3c0,88.65,43.18,173.53,114.71,225.85,79.17,57.92,186,69.92,276,30.87a285.87,285.87,0,0,0,35.68-18.64c1.49-.91,2.9-5,3.76-6.48s2.13-5.64,3.63-6.56Z" transform="translate(-146.3 -463.95)"/></svg>