<svg id="Layer_1" data-name="Layer 1" xmlns="http://www.w3.org/2000/svg" viewBox="0 0 1200 762.39"><defs><style>.cls-1{fill:#fff;}</style></defs><path class="cls-1" d="M1215.48,820.77V784.64c-.56-.43-.73-.67-.91-.68-7.76-.12-15.53-.14-23.29-.35a22.29,22.29,0,0,1-21.31-17c-3.61-14.34,6.62-27.38,22.24-28,7.68-.32,15.38-.06,23.14-.06v-37c-8.27,0-16,.17-23.77,0-10.36-.29-18.61-6.63-21.39-16-4-13.73,5.1-27.88,19.38-29,8.53-.68,17.16-.12,25.71-.12V620c-38.76-4.66-59.17-26.54-63.34-64.08H213.88c-2,34.62-26.09,61.26-63.55,64.21V656c6.92,0,13.51-.18,20.1.07,3.95.15,8.09.34,11.79,1.58,10.27,3.43,16.07,13.77,14.56,24.89a22.24,22.24,0,0,1-21.1,18.84c-8.34.42-16.72.09-25.22.09v37c7.78,0,15.1-.18,22.41,0,14.62.45,24.2,9.68,24.09,22.94s-10.07,22-24.76,22.12c-7.25,0-14.5,0-21.77,0v37.11c7.5,0,14.57,0,21.64,0,15,.09,24.81,9.13,24.89,22.77s-9.89,22.63-24.89,22.69c-7.24,0-14.48,0-22.07,0v37.15c8.94,0,16.92-.21,24.88,0,13.88.45,23.54,11.79,22,25.43-1.3,11.19-10.71,19.21-23.31,19.56-7.67.22-15.36,0-23,0v37c7.86,0,15.26-.69,22.47.22,5.48.69,11.45,2.34,15.9,5.44,7.77,5.4,10,15.82,6.92,24.58-3.22,9.1-10.95,14.8-21.39,15.2-7.92.3-15.86.06-23.89.06v36.46c17.67.81,32.51,7,44.56,19.36s17.62,27.44,18.45,44.43H1152c4.36-38.45,25.34-60,63.43-64.29V1031c-7.77,0-15.07.14-22.36,0-13.92-.31-23.75-9.73-23.82-22.6-.06-13.14,10-22.71,24.22-22.89,7.26-.09,14.53,0,22,0v-37c-7.49,0-14.55.07-21.61,0-14.38-.17-24.5-9.47-24.62-22.53s10.2-22.46,24.47-22.57c7.25-.05,14.5,0,21.69,0V866.21c-8,0-15.52.1-23,0-13.19-.21-23.09-9.93-23.12-22.55s9.83-22.59,22.9-22.85C1199.64,820.65,1207.17,820.77,1215.48,820.77Zm127.25.52c-8.09,1.62-15.64,3.2-23.22,4.62-11.49,2.15-21.33-2.77-25.86-12.8-5.93-13.11,1.23-27.4,15.71-31.06,7.88-2,15.85-3.66,24.19-5.58-2.57-12.39-5-24-7.45-36-8.23,1.62-15.6,3.14-23,4.51-13.35,2.48-25.09-4.69-27.57-16.74-2.61-12.66,5.75-24.65,19.16-27.46l22.27-4.64c-2.58-12.58-5-24.4-7.49-36.42-8.9,1.88-16.86,3.93-24.94,5.18-13.33,2.06-24.15-6.66-25.55-20.06-1.18-11.39,5.83-21.4,17.33-24.24,8.06-2,16.23-3.56,24.46-5.34l-7.44-35.92-21.94,4.31c-14.5,2.83-26-4.16-28.82-17.51-2.57-12.15,5.59-23.41,19.33-26.57,7.11-1.63,14.25-3.15,22.23-4.9-2.5-12.24-4.92-24-7.4-36.15-8.46,1.7-16,3.39-23.67,4.73-16.44,2.9-29.84-9.76-26.86-25.58,1.85-9.85,8-16.2,17.83-18.47,7.7-1.77,15.45-3.28,23.53-5-2.57-12.4-5-24.05-7.39-35.66-33.81,5.53-65.21-12.57-75.31-49.76L357.72,541.07l.13,1.2h808c-1.11,18.26,1,35.09,14.25,48.64,13.39,13.74,30.19,16.63,48.41,15.13v63.29h-17.9c-5.78,0-11.55,0-17.33,0-6-.05-9.85,2.66-10.81,8.62-.93,5.77,3.89,10.35,10.92,10.42,11.7.12,23.39,0,35.18,0v63.44h-7.81c-9.55,0-19.11-.15-28.67.07-6,.15-10.13,4.31-9.68,9.58.5,5.73,3.89,8.73,9.69,8.87,2.44.06,4.89,0,7.33,0h29.14V834c-11.61,0-22.69-.06-33.76.05-2.39,0-5.84-.22-7,1.16-2.39,3-5,7-4.91,10.44.2,4.81,4.44,7.31,9.58,7.29,11.94,0,23.88,0,36.14,0v63.34c-2.59.11-4.76.28-6.93.29-9.56,0-19.12-.08-28.67.06-6.52.09-10.71,3.91-10.71,9.34s4.22,9.06,10.85,9.24c5.33.15,10.66,0,16,0h20.12v12.19l71.19-14.53c-4.23-38,8.57-57.62,49.51-76.81C1347.63,844.77,1345.25,833.35,1342.73,821.29Z" transform="translate(-150 -368.81)"/><path d="M1215.48,820.77c-8.31,0-15.84-.12-23.37,0-13.07.26-22.93,10.19-22.9,22.85s9.93,22.34,23.12,22.55c7.52.12,15,0,23,0v37.13c-7.19,0-14.44-.05-21.69,0-14.27.11-24.6,9.65-24.47,22.57s10.24,22.36,24.62,22.53c7.06.08,14.12,0,21.61,0v37c-7.48,0-14.75-.08-22,0-14.21.18-24.28,9.75-24.22,22.89.07,12.87,9.9,22.29,23.82,22.6,7.29.17,14.59,0,22.36,0v35.94c-38.09,4.26-59.07,25.84-63.43,64.29H213.55c-.83-17-6.43-32.13-18.45-44.43s-26.89-18.55-44.56-19.36v-36.46c8,0,16,.24,23.89-.06,10.44-.4,18.17-6.1,21.39-15.2,3.1-8.76.85-19.18-6.92-24.58-4.45-3.1-10.42-4.75-15.9-5.44-7.21-.91-14.61-.22-22.47-.22v-37c7.64,0,15.33.18,23,0,12.6-.35,22-8.37,23.31-19.56,1.58-13.64-8.08-25-22-25.43-8-.25-15.94,0-24.88,0V866.22c7.59,0,14.83,0,22.07,0,15-.06,25-9.16,24.89-22.69s-9.94-22.68-24.89-22.77c-7.07,0-14.14,0-21.64,0V783.64c7.27,0,14.52,0,21.77,0,14.69-.09,24.64-9,24.76-22.12s-9.47-22.49-24.09-22.94c-7.31-.22-14.63,0-22.41,0v-37c8.5,0,16.88.33,25.22-.09a22.24,22.24,0,0,0,21.1-18.84c1.51-11.12-4.29-21.46-14.56-24.89-3.7-1.24-7.84-1.43-11.79-1.58-6.59-.25-13.18-.07-20.1-.07V620.17c37.46-2.95,61.56-29.59,63.55-64.21h938.06c4.17,37.54,24.58,59.42,63.34,64.08v36.25c-8.55,0-17.18-.56-25.71.12-14.28,1.15-23.43,15.3-19.38,29,2.78,9.42,11,15.76,21.39,16,7.74.22,15.5,0,23.77,0v37c-7.76,0-15.46-.26-23.14.06-15.62.64-25.85,13.68-22.24,28a22.29,22.29,0,0,0,21.31,17c7.76.21,15.53.23,23.29.35.18,0,.35.25.91.68Zm-532.9,253.39q192,0,384,0c18,0,29.13-11.11,29.14-29.05q0-201.31,0-402.64c0-18.77-11-29.64-30-29.64q-382.65,0-765.28,0c-18.77,0-29.87,10.95-29.88,29.79q-.07,200.65,0,401.31c0,19.75,10.83,30.24,30.72,30.24Z" transform="translate(-150 -368.81)"/><path d="M1342.73,821.29c2.52,12.06,4.9,23.48,7.27,34.82-40.94,19.19-53.74,38.84-49.51,76.81l-71.19,14.53V935.26h-20.12c-5.34,0-10.67.11-16,0-6.63-.18-10.85-3.88-10.85-9.24s4.19-9.25,10.71-9.34c9.55-.14,19.11,0,28.67-.06,2.17,0,4.34-.18,6.93-.29V853c-12.26,0-24.2,0-36.14,0-5.14,0-9.38-2.48-9.58-7.29-.14-3.47,2.52-7.47,4.91-10.44,1.11-1.38,4.56-1.14,7-1.16,11.07-.11,22.15-.05,33.76-.05V770.38H1199.4c-2.44,0-4.89,0-7.33,0-5.8-.14-9.19-3.14-9.69-8.87-.45-5.27,3.68-9.43,9.68-9.58,9.56-.22,19.12-.07,28.67-.07h7.81V688.4c-11.79,0-23.48.09-35.18,0-7-.07-11.85-4.65-10.92-10.42,1-6,4.84-8.67,10.81-8.62,5.78,0,11.55,0,17.33,0h17.9V606c-18.22,1.5-35-1.39-48.41-15.13-13.2-13.55-15.36-30.38-14.25-48.64h-808l-.13-1.2,827.14-172.26c10.1,37.19,41.5,55.29,75.31,49.76,2.4,11.61,4.82,23.26,7.39,35.66-8.08,1.71-15.83,3.22-23.53,5-9.88,2.27-16,8.62-17.83,18.47-3,15.82,10.42,28.48,26.86,25.58,7.64-1.34,15.21-3,23.67-4.73,2.48,12.11,4.9,23.91,7.4,36.15-8,1.75-15.12,3.27-22.23,4.9-13.74,3.16-21.9,14.42-19.33,26.57,2.82,13.35,14.32,20.34,28.82,17.51l21.94-4.31,7.44,35.92c-8.23,1.78-16.4,3.34-24.46,5.34-11.5,2.84-18.51,12.85-17.33,24.24,1.4,13.4,12.22,22.12,25.55,20.06,8.08-1.25,16-3.3,24.94-5.18,2.48,12,4.91,23.84,7.49,36.42l-22.27,4.64c-13.41,2.81-21.77,14.8-19.16,27.46,2.48,12,14.22,19.22,27.57,16.74,7.4-1.37,14.77-2.89,23-4.51,2.47,12,4.88,23.59,7.45,36-8.34,1.92-16.31,3.58-24.19,5.58-14.48,3.66-21.64,18-15.71,31.06,4.53,10,14.37,14.95,25.86,12.8C1327.09,824.49,1334.64,822.91,1342.73,821.29Z" transform="translate(-150 -368.81)"/><path class="cls-1" d="M682.58,1074.16H301.27c-19.89,0-30.71-10.49-30.72-30.24q-.06-200.66,0-401.31c0-18.84,11.11-29.79,29.88-29.79q382.64,0,765.28,0c18.94,0,30,10.87,30,29.64q0,201.31,0,402.64c0,17.94-11.15,29-29.14,29.05Q874.57,1074.18,682.58,1074.16ZM933.12,626.08H927q-313.35,0-626.68,0c-11.52,0-16.76,5.17-16.76,16.65q0,200.65,0,401.33c0,12,4.93,16.82,17.13,16.82H933.13c0-10.94,0-21.11,0-31.28,0-5.22-1.24-12.09,6.55-12.13s6.51,6.86,6.54,12c.07,10.35,0,20.7,0,31.37h7q56,0,112,0c12.6,0,17.41-4.7,17.41-17.19q0-200,0-400c0-12.88-4.81-17.6-17.75-17.61q-55.68,0-111.34,0c-2.33,0-4.67.19-7.33.31,0,11.87-.06,23,0,34.05.05,4.88-.72,9.56-6.61,9.51s-6.58-4.85-6.56-9.65C933.15,649.22,933.12,638.13,933.12,626.08Z" transform="translate(-150 -368.81)"/><path d="M1064.91,626.08q-55.67,0-111.33,0c-2.33,0-4.66.19-7.33.31,0,11.87-.07,23,0,34.06,0,4.86-.72,9.55-6.62,9.49s-6.58-4.84-6.56-9.64c0-11.09,0-22.19,0-34.23H927q-313.35,0-626.69,0c-11.52,0-16.75,5.17-16.75,16.64q0,200.68,0,401.35c0,12,4.93,16.82,17.12,16.82H933.14c0-10.94,0-21.12,0-31.28,0-5.22-1.24-12.09,6.55-12.13s6.51,6.85,6.54,12c.06,10.35,0,20.7,0,31.38h119c12.6,0,17.4-4.71,17.42-17.21q0-200,0-400C1082.68,630.81,1077.86,626.09,1064.91,626.08Zm-375.11,56c4.05-.28,6.41-1.8,7.93-5.64,2.42-6.14,5.35-12.07,8.58-19.23,3.33,7.42,5.87,13.92,9.16,20a10.24,10.24,0,0,0,6.32,4.49c6.47,1.29,13.1,1.75,21.41,2.74-5.41,4.93-9.43,9.19-14.07,12.64s-5.43,7.27-3.84,12.58c1.68,5.65,2.56,11.55,4.08,18.68-7.22-4.12-13-7.79-19.18-10.72a10,10,0,0,0-7.63,0c-6.15,3-11.95,6.64-19.32,10.86,1.8-8.38,3.6-15,4.47-21.77a10.71,10.71,0,0,0-2.62-7.76c-4.56-4.79-9.81-8.91-16-14.37C676.89,683.56,683.32,682.49,689.8,682.05ZM440.87,698.49c-3.07,2.44-3.73,5-2.81,8.62,1.61,6.42,2.85,12.93,4.6,21.08-5.31-3-9.74-4.77-13.39-7.59-6.74-5.23-12.79-5.28-19.5.1-3.55,2.85-7.95,4.66-13.2,7.64,1.06-5,1.34-8.36,2.53-11.4,4.16-10.69,2.15-19-8.19-25-2.8-1.61-5-4.28-8.58-7.45,7.62-.93,13.89-2,20.2-2.36,4.64-.26,7.16-2.07,8.79-6.44,2.2-6,5.08-11.67,8.28-18.87,3.35,7.48,5.72,13.83,9,19.67a12.15,12.15,0,0,0,7.15,5.24c6.4,1.38,13,1.73,21.18,2.69C450.79,689.85,446,694.41,440.87,698.49Zm53.4.69c-4.71-4.88-10-9.18-16.17-14.7,7.75-1,14-2,20.37-2.41,4.29-.28,6.81-1.77,8.36-6,2.25-6.11,5.19-12,8.44-19.34,3.15,7.39,6,13.1,8,19.07,1.56,4.54,4.35,6,8.85,6.26,6.15.36,12.25,1.4,20,2.36-5.68,5.16-10.13,9.56-15,13.48-3.31,2.67-4.57,5.27-3.36,9.62,1.76,6.34,2.76,12.91,4.35,20.67-7.08-4-13-7.7-19.27-10.75a9.17,9.17,0,0,0-7.07-.09c-6.32,3-12.32,6.74-19.64,10.86,1.72-8.14,3.48-15,4.44-22A9.68,9.68,0,0,0,494.27,699.18Zm95-.82c-5-4-9.48-8.55-15.28-13.87,7.65-1,13.95-2,20.27-2.47,4-.31,6.44-1.8,7.95-5.67,2.4-6.17,5.32-12.15,8.6-19.49,3.21,7.3,5.57,13.71,8.87,19.6a12,12,0,0,0,7.13,5.25c6.43,1.4,13.07,1.77,21.14,2.73-6,5.38-10.75,10-15.87,14.06-3,2.43-3.87,4.79-2.88,8.57,1.71,6.53,2.85,13.21,4.52,21.16-7.29-4.12-13.09-7.77-19.26-10.68a10,10,0,0,0-7.61.11c-6.15,2.93-11.94,6.58-19,10.6,1.6-7.75,2.73-14.27,4.34-20.66C593.14,703.71,592.5,701,589.23,698.36ZM785,682.11c4.66-.22,7.17-2.09,8.78-6.4,2.21-5.92,5-11.63,8.25-19,3.22,7.52,6,13.43,8.27,19.53,1.43,3.84,3.62,5.52,7.75,5.79,6.56.4,13.07,1.46,20.9,2.38-5.78,5.24-10.32,9.72-15.27,13.72-3.14,2.53-4.26,5-3.2,9.05,1.65,6.39,2.6,13,4.12,20.95-6.84-3.92-12.48-7.56-18.5-10.37a10.85,10.85,0,0,0-8.17,0c-6.12,2.84-11.86,6.52-18.91,10.53,1.5-7.62,2.54-13.92,4-20.12,1-4.31.4-7.47-3.34-10.38-4.85-3.77-9.2-8.18-14.91-13.34C772.45,683.54,778.71,682.43,785,682.11Zm148.19,19.21c0-4.28,2.06-7.55,6.74-7.39s6.35,3.41,6.32,7.78c0,6.88,0,13.77,0,20.65s0,13.78,0,20.67c0,4.4-1.86,7.66-6.37,7.78s-6.68-3.16-6.71-7.5Q933.06,722.33,933.19,701.32Zm13.07,203c0,4.63-1.84,8.14-6.69,8.07-4.46-.06-6.4-3.46-6.42-7.77,0-13.95-.06-27.89,0-41.82,0-4.26,2.08-7.52,6.74-7.38s6.33,3.42,6.32,7.75q0,10.62,0,21.23C946.25,891.06,946.22,897.7,946.26,904.34Zm0,60.94c0,6.44,0,12.88,0,19.32.06,4.48-1.12,8.31-6.28,8.46s-6.8-3.47-6.81-8c0-13.56,0-27.11,0-40.67,0-4.59,1.79-8.28,6.7-8.18s6.51,3.77,6.43,8.41C946.14,951.49,946.24,958.38,946.24,965.28Zm0-142c0,4.52-1.41,8.19-6.47,8.23s-6.6-3.7-6.64-8.14c0-6.85,0-13.71,0-20.56V782.91c0-4.51,1.68-8.28,6.56-8.3s6.6,3.6,6.58,8.2C946.22,796.31,946.24,809.81,946.26,823.29Zm52.21-32.21V780.44h25.65c.36-3.23.61-5.59.9-8.32h10.82c.35,2.56.65,4.91,1.09,8.16h17.9v12.9h-18.46V821.4c-4.3-.58-7.85-.63-11.16-1.55-12.83-3.56-25.59-7.38-38.37-11.15-10.75-3.16-10.75-3.19-9.42-16l46.83,13.76V793.1Zm36.42-30.87V748.15c1.52-.56,3.6-.7,4.64-1.84,1.63-1.77,3.62-4.25,3.5-6.33s-2.43-5.64-4.07-5.81a86.88,86.88,0,0,0-20.38-.23c-4.81.63-6.06,6.81-2.85,10.59,5.4,6.36,5.4,6.36,4.4,15.37h-42.7V722.67h11v23.84H1003a10,10,0,0,0-.16-2.14c-3.51-12.75,1.62-21.87,14.68-23.77a77.78,77.78,0,0,1,23.1.27c11,1.76,17.08,11.15,15.76,21.92C1055,754.12,1047.12,760.6,1034.89,760.21ZM975.6,683.45c.71-11.32,8.38-18.53,20.74-18.73v11.87c-4.87,1.87-10.23,4.52-7.35,10.83,3.45,7.58,10.83,3.34,17.12,4.62-.61-2.3-1.05-3.71-1.37-5.16-2.79-12.06,4.15-22,16.5-23.1a96.77,96.77,0,0,1,16-.06c11.29.83,18.91,8.95,19.29,20s-7.14,20.81-18.49,21.35a432.48,432.48,0,0,1-45.26-.16C981.72,704.32,974.89,694.8,975.6,683.45Zm6.06,206.64a19.3,19.3,0,0,1,23.45-2.79c7.75,4.52,14.39,10.92,21.63,16.34,4.63,3.45,9.49,6.61,14.25,9.91.58-.47,1.18-.92,1.77-1.39V884.9h12c.18,1.85.44,3.36.45,4.87,0,11.93,0,23.87,0,36.34-12.35,1.88-22.55-.73-31.34-8.19-5.57-4.73-10.52-10.28-16.44-14.51a29.92,29.92,0,0,0-13.16-4.83c-1.86-.22-5.51,3.31-5.94,5.59s1.56,6.94,3.4,7.47c8.54,2.52,5.53,8.36,5.26,14-9.22-.37-16.4-3.33-20-12.06C973.8,905.64,975.92,895.54,981.66,890.09Zm19.17,75.69c-13.84,4-25.67-7.89-23.19-23.31h76.55v12.85H995.11C997.31,959.36,999.06,962.54,1000.83,965.78Zm34.94,57.84c-6.64.35-13.31.07-19.95.07v0c-6.21,0-12.43.2-18.63,0-12.73-.47-20.68-8.47-21.14-21-.46-12.69,6.69-21.47,19.57-22.15a387.63,387.63,0,0,1,41.19,0c12.54.68,19.35,9.21,19.1,21.87C1055.66,1014.79,1048.06,1023,1035.77,1023.62Zm19.35-162.43c-2.86,8-10.4,12.62-20.89,12.44V861.52c1.7-.61,4-.81,5.21-2,1.71-1.72,3.57-4.21,3.6-6.4s-1.91-6.18-3.33-6.34a82.92,82.92,0,0,0-18.83,0c-1.48.17-3,4-3.66,6.42s-.12,4.79-.12,7.25c-5.82,2.32-10.24.32-14.61-2.63-4-2.69-8.18-5.11-13.31-8.27v21.7H977.26v-37c12.68-2.71,19.29,8.88,29.35,11.74,7.24-14.42,29.56-19.5,42.71-9.64C1055.8,841.08,1058.36,852.09,1055.12,861.19Z" transform="translate(-150 -368.81)"/><path class="cls-1" d="M996.34,664.72v11.87c-4.87,1.88-10.23,4.52-7.35,10.83,3.46,7.58,10.83,3.34,17.12,4.61-.61-2.28-1-3.71-1.38-5.15-2.77-12.06,4.16-22,16.51-23.1a97.88,97.88,0,0,1,16-.06c11.29.84,18.91,9,19.29,20s-7.13,20.81-18.48,21.35a435.2,435.2,0,0,1-45.26-.16c-11-.63-17.87-10.16-17.16-21.5S984,664.93,996.34,664.72Zm33.44,27.21v-.28c2.22,0,4.45.17,6.65,0,4.45-.41,6.89-3,6.82-7.45s-2.84-6.95-7.17-7.19-9.17-1-13.22.31c-2.85.89-6.19,4.54-6.62,7.36-.29,2,3.65,5.17,6.33,6.77C1024.42,692.52,1027.34,691.82,1029.78,691.93Z" transform="translate(-150 -368.81)"/><path class="cls-1" d="M1015.82,1023.73c-6.21,0-12.43.19-18.63,0-12.74-.48-20.68-8.47-21.14-21-.46-12.69,6.69-21.47,19.57-22.14a385,385,0,0,1,41.19,0c12.54.68,19.35,9.21,19.1,21.86-.25,12.34-7.85,20.52-20.14,21.17-6.63.35-13.3.07-19.95.07Zm.46-30.81H999.67c-.45,0-.89,0-1.33,0-5.38.27-9.61,1.89-9.91,8.29-.28,6.09,2.42,9.53,9.09,9.72,12.39.35,24.8.27,37.19,0,5.63-.12,9.06-3.13,9-9.25-.09-6.31-4-8.54-9.47-8.72C1028.24,992.78,1022.26,992.94,1016.28,992.92Z" transform="translate(-150 -368.81)"/><path class="cls-1" d="M764.82,684.47c7.64-.93,13.89-2,20.18-2.35,4.65-.23,7.16-2.1,8.78-6.41,2.21-5.92,5-11.62,8.25-19,3.22,7.52,6,13.43,8.27,19.54,1.43,3.84,3.61,5.52,7.76,5.78,6.55.4,13.06,1.45,20.89,2.38-5.77,5.23-10.33,9.71-15.27,13.72-3.13,2.53-4.25,5-3.2,9.06,1.66,6.39,2.6,13,4.12,20.94-6.84-3.91-12.48-7.56-18.5-10.37a10.94,10.94,0,0,0-8.17,0c-6.12,2.85-11.86,6.53-18.91,10.55,1.5-7.63,2.55-13.93,4-20.13,1-4.31.4-7.47-3.34-10.37C774.87,694.06,770.52,689.64,764.82,684.47Z" transform="translate(-150 -368.81)"/><path class="cls-1" d="M396.57,728.34c1.07-5,1.35-8.37,2.53-11.4,4.17-10.69,2.15-19-8.19-25-2.79-1.62-5-4.28-8.59-7.47,7.63-.93,13.9-2,20.2-2.36,4.65-.24,7.18-2.07,8.79-6.43,2.21-6,5.09-11.68,8.29-18.87,3.35,7.48,5.73,13.83,9,19.67a12.06,12.06,0,0,0,7.14,5.24c6.41,1.39,13,1.74,21.18,2.69-6.15,5.43-10.92,10-16.06,14.07-3.08,2.44-3.74,5-2.82,8.62,1.62,6.42,2.85,12.94,4.6,21.08-5.32-3-9.74-4.77-13.39-7.59-6.74-5.23-12.8-5.28-19.5.1C406.22,723.55,401.83,725.36,396.57,728.34Z" transform="translate(-150 -368.81)"/><path class="cls-1" d="M478.11,684.47c7.74-1,14-2,20.36-2.4,4.3-.27,6.82-1.78,8.36-6,2.26-6.1,5.18-12,8.44-19.33,3.15,7.38,6,13.09,8,19.06,1.57,4.54,4.34,6,8.85,6.26,6.15.36,12.25,1.4,20,2.36-5.68,5.16-10.14,9.56-15,13.48-3.31,2.67-4.57,5.27-3.37,9.61,1.77,6.35,2.77,12.91,4.35,20.68-7.07-4-13-7.69-19.27-10.75a9.19,9.19,0,0,0-7.06-.1c-6.32,3-12.32,6.75-19.64,10.87,1.72-8.15,3.47-15,4.44-21.94a9.74,9.74,0,0,0-2.36-7.11C489.55,694.31,484.26,690,478.11,684.47Z" transform="translate(-150 -368.81)"/><path class="cls-1" d="M587.8,728.26c1.61-7.76,2.75-14.27,4.35-20.66,1-3.9.35-6.6-2.92-9.24-5-4-9.49-8.56-15.28-13.87,7.66-1,13.95-2,20.27-2.47,4-.3,6.44-1.79,7.95-5.67,2.4-6.17,5.32-12.15,8.59-19.5,3.23,7.31,5.59,13.72,8.87,19.61a12,12,0,0,0,7.14,5.25c6.42,1.4,13.08,1.76,21.14,2.72-6,5.39-10.75,10-15.87,14.08-3,2.42-3.87,4.78-2.89,8.55,1.71,6.54,2.86,13.22,4.53,21.17-7.29-4.12-13.09-7.78-19.25-10.68a10.06,10.06,0,0,0-7.62.1C600.66,720.59,594.87,724.24,587.8,728.26Z" transform="translate(-150 -368.81)"/><path class="cls-1" d="M683.24,728.42c1.8-8.37,3.6-15,4.47-21.77a10.7,10.7,0,0,0-2.62-7.76c-4.56-4.78-9.81-8.91-16-14.37,7.8-1,14.23-2,20.7-2.48,4.06-.28,6.42-1.79,7.94-5.63,2.42-6.14,5.35-12.07,8.57-19.23,3.34,7.43,5.88,13.92,9.17,20a10.29,10.29,0,0,0,6.32,4.5c6.47,1.28,13.1,1.74,21.41,2.73-5.41,4.93-9.44,9.19-14.07,12.64s-5.43,7.26-3.85,12.58c1.69,5.65,2.57,11.54,4.09,18.68-7.22-4.12-13-7.79-19.18-10.73a10.05,10.05,0,0,0-7.62,0C696.41,720.51,690.61,724.2,683.24,728.42Z" transform="translate(-150 -368.81)"/><path class="cls-1" d="M1034.89,760.22V748.15c1.52-.55,3.61-.71,4.64-1.83,1.64-1.78,3.61-4.26,3.5-6.34s-2.43-5.64-4.07-5.81a88,88,0,0,0-20.38-.23c-4.82.62-6.06,6.82-2.86,10.59,5.4,6.36,5.4,6.36,4.41,15.37h-42.7V722.67h11v23.85H1003a9.48,9.48,0,0,0-.15-2.16c-3.51-12.74,1.63-21.87,14.67-23.76a77.84,77.84,0,0,1,23.11.27c11,1.76,17.08,11.15,15.76,21.93C1055,754.11,1047.12,760.6,1034.89,760.22Z" transform="translate(-150 -368.81)"/><path class="cls-1" d="M1055.21,926.11c-12.36,1.88-22.56-.74-31.35-8.19-5.57-4.73-10.52-10.28-16.44-14.5a29.68,29.68,0,0,0-13.17-4.83c-1.84-.23-5.5,3.3-5.93,5.58s1.57,6.93,3.41,7.47c8.53,2.51,5.51,8.36,5.25,14-9.22-.38-16.41-3.34-20-12-3.23-7.94-1.11-18,4.63-23.49a19.32,19.32,0,0,1,23.46-2.79c7.74,4.53,14.38,10.93,21.63,16.34,4.63,3.46,9.48,6.62,14.23,9.91l1.78-1.39V884.9h12c.18,1.86.44,3.36.45,4.87C1055.22,901.7,1055.21,913.64,1055.21,926.11Z" transform="translate(-150 -368.81)"/><path class="cls-1" d="M989.18,871.18H977.25v-37c12.69-2.7,19.3,8.88,29.35,11.74,7.24-14.42,29.58-19.49,42.72-9.65,6.49,4.86,9,15.88,5.81,25-2.87,8-10.4,12.61-20.91,12.43v-12.1c1.71-.63,4-.82,5.22-2.06,1.71-1.72,3.58-4.22,3.61-6.4s-1.92-6.18-3.35-6.34a82.83,82.83,0,0,0-18.82,0c-1.49.17-3,4-3.65,6.42s-.13,4.79-.13,7.24c-5.82,2.33-10.24.32-14.61-2.62-4-2.69-8.18-5.1-13.31-8.27Z" transform="translate(-150 -368.81)"/><path class="cls-1" d="M977.42,792.74l46.84,13.78V793.09l-25.79-2V780.44h25.65c.35-3.22.61-5.58.9-8.32h10.82c.34,2.56.66,4.91,1.1,8.17h17.9v12.88h-18.47v28.22c-4.3-.56-7.85-.62-11.15-1.54-12.84-3.56-25.6-7.38-38.37-11.15C976.09,805.53,976.1,805.51,977.42,792.74Z" transform="translate(-150 -368.81)"/><path class="cls-1" d="M977.64,942.48h76.55v12.84H995.11c2.21,4,3.95,7.22,5.72,10.46C987,969.74,975.15,957.89,977.64,942.48Z" transform="translate(-150 -368.81)"/><path class="cls-1" d="M946.25,722.37c0,6.88,0,13.77,0,20.66,0,4.4-1.87,7.66-6.37,7.78s-6.68-3.16-6.71-7.49q-.12-21,0-42c0-4.29,2-7.57,6.73-7.41s6.34,3.43,6.32,7.78C946.23,708.59,946.25,715.48,946.25,722.37Z" transform="translate(-150 -368.81)"/><path class="cls-1" d="M933.14,802.81v-19.9c0-4.51,1.68-8.29,6.56-8.3s6.6,3.6,6.58,8.21q-.07,20.23,0,40.47c0,4.52-1.42,8.19-6.48,8.23s-6.6-3.69-6.64-8.14C933.09,816.53,933.14,809.67,933.14,802.81Z" transform="translate(-150 -368.81)"/><path class="cls-1" d="M946.25,884.43c0,6.63,0,13.27,0,19.91,0,4.63-1.84,8.14-6.7,8.07-4.45-.06-6.39-3.47-6.4-7.78,0-13.93-.08-27.87,0-41.81,0-4.26,2.08-7.52,6.73-7.37s6.33,3.41,6.32,7.74Q946.24,873.81,946.25,884.43Z" transform="translate(-150 -368.81)"/><path class="cls-1" d="M946.24,965.27c0,6.45,0,12.89,0,19.34,0,4.48-1.12,8.3-6.28,8.45s-6.8-3.47-6.81-8c0-13.56,0-27.11,0-40.67,0-4.59,1.79-8.28,6.7-8.18s6.51,3.77,6.42,8.4C946.15,951.49,946.24,958.38,946.24,965.27Z" transform="translate(-150 -368.81)"/><path d="M809.74,802.2h-14c2.18-7.49,4.24-14.54,6.82-23.36C805.24,787.64,807.41,794.65,809.74,802.2Z" transform="translate(-150 -368.81)"/><path d="M1029.78,691.93c-2.44-.11-5.36.59-7.21-.51-2.68-1.6-6.62-4.81-6.33-6.77.43-2.82,3.77-6.47,6.62-7.36,4.05-1.26,8.79-.55,13.22-.31s7.09,2.65,7.17,7.19-2.37,7-6.82,7.45c-2.2.2-4.43,0-6.65,0Z" transform="translate(-150 -368.81)"/><path d="M1016.28,992.93c6,0,12-.15,17.94.06,5.49.18,9.38,2.41,9.47,8.72.08,6.12-3.35,9.13-9,9.25-12.39.26-24.8.34-37.19,0-6.67-.19-9.37-3.63-9.09-9.72.3-6.4,4.53-8,9.91-8.29.44,0,.88,0,1.33,0Z" transform="translate(-150 -368.81)"/><path class="cls-1" d="M419.22,1025.12c-18.23,0-36.89-22.48-36.89-66.9,0-45.87,18.66-67.26,36.89-67.26s36.9,23.75,36.9,67.8C456.12,1003.18,437.46,1025.12,419.22,1025.12Zm0-106.6c-14,0-21.29,17.77-21.29,40.24,0,21.22,7.27,38.8,21.29,38.8s21.3-17,21.3-38.8C440.52,936.65,433.14,918.52,419.22,918.52Z" transform="translate(-150 -368.81)"/><path class="cls-1" d="M499,1023.48c-20.56,0-33.11-25.56-33-65.26,0-20.85.1-42.78.1-63.63h16.13v60.55c0,28.46,6.86,40.06,16.77,40.06,9,0,16-14.5,16-40.79V894.59H531.3v62C531.3,997.74,519,1023.48,499,1023.48Z" transform="translate(-150 -368.81)"/><path class="cls-1" d="M579.9,1021.67H563.25v-101H539.31v-26.1h64.42v26.1H579.9Z" transform="translate(-150 -368.81)"/><path class="cls-1" d="M638,1023.3c-10.55,0-17.29-5.07-28.15-18.13l5.06-24.65c10.33,10.51,16.87,16,22,16,7.28,0,15.92-4.53,15.92-14.68,0-11.06-11-12.33-15.6-13.24-12-2.53-27.73-7.25-27.73-37,0-33.54,18.35-40.25,29-40.25,9.81,0,18.66,5.44,28.26,17.23l-4.85,23c-8.22-9.24-16.13-13.6-23.41-13.6-11.28,0-13.91,7.8-13.91,12.51,0,9.07,12.12,11.06,15.39,11.06,11.07,2,28.15,5.62,28.15,40.25C668.15,1015.51,649.49,1023.3,638,1023.3Z" transform="translate(-150 -368.81)"/><path class="cls-1" d="M680.7,894.59h16.44v127.08H680.7Z" transform="translate(-150 -368.81)"/><path class="cls-1" d="M738.58,1021.67h-27.2V894.59h30.15c20.77,0,33.84,30.09,33.84,63.45C775.37,994.3,760.93,1021.67,738.58,1021.67Zm-1-101.7h-9.8c0,25.74-.11,50.4-.11,76.14h9.59c14.24,0,22.88-17.4,22.88-37.35C760.19,937.92,754.18,920,737.63,920Z" transform="translate(-150 -368.81)"/><path class="cls-1" d="M786,894.59h51.77v26.1H802.47c0,8.34-.11,16.68-.11,25.2h29.95v25.38H802.47v24.12H839v26.28h-53Z" transform="translate(-150 -368.81)"/><path class="cls-1" d="M438.2,854l-7.9-31.63h-.44L422.06,854H401.53l-12.1-53.91c-1.14-4.93-3.07-6.47-7.1-6.47v-10h33.06v10c-4.12,0-4.21,3.39-3.51,7L416,820.8h.36l9.82-37.17H439l9.21,37.17h.44l4.48-19.4c1-4.11,1.57-7.81-3.25-7.81v-10h25.61v10c-3,0-4.73,1.65-5.26,3.8L457.32,854Z" transform="translate(-150 -368.81)"/><path class="cls-1" d="M498.89,853.46v-10c2.2,0,3.95-.72,3.95-3.5a12.49,12.49,0,0,0-.7-3.38H484.68a12.83,12.83,0,0,0-.61,3.28c0,2.06,1.75,3.6,4.39,3.6v10H465.39v-10c4.73,0,5.52-1.24,7.1-6.37l16.32-54h20l17.9,53.7c.61,1.95,2.36,6.68,7.71,6.68v10Zm-5.17-49.91h-.53l-5.44,21.16h11.41Z" transform="translate(-150 -368.81)"/><path class="cls-1" d="M538.8,853.46v-10c3.16,0,5.7-1.13,5.7-8.32V795.54h-4.73c-3.16,0-4.65.83-6,9l-.43,2.67h-8.16l1-23.62H584l1.14,23.62H576l-.44-2.67c-1.31-8.21-2.72-9-5.87-9h-3.95v39.74c0,7.09,2.46,8.22,5.61,8.22v10Z" transform="translate(-150 -368.81)"/><path class="cls-1" d="M643.53,846.47a34.75,34.75,0,0,1-22,8.73c-23.15,0-33.76-16.53-33.76-35.83,0-18.28,11.4-37.48,32.36-37.48a50.21,50.21,0,0,1,21.58,5.23l.7,21.77h-8.16c0-6.67-3.51-14.78-11.93-14.78-9.56,0-11.75,16.43-11.75,23,0,12,3.6,23.82,13.86,23.82,5.08,0,9.64-2.16,14.56-6.26Z" transform="translate(-150 -368.81)"/><path class="cls-1" d="M685.19,853.46v-10c3.25,0,5.61-1.13,5.61-8.32V824.71h-16v10.47c0,7.19,2.55,8.32,5.62,8.32v10H647.92v-10c3.24,0,5.61-1.13,5.61-8.32V801.91c0-7.19-2.37-8.32-5.61-8.32v-10h32.45v10c-3.07,0-5.62,1.13-5.62,8.32v10.47h16V801.91c0-7.19-2.36-8.32-5.61-8.32v-10h32.45v10c-3.07,0-5.61,1.13-5.61,8.32v33.27c0,7.19,2.54,8.32,5.61,8.32v10Z" transform="translate(-150 -368.81)"/><path class="cls-1" d="M743.08,853.46v-10c3.25,0,5.61-1.13,5.61-8.32V801.91c0-7.19-2.36-8.32-5.61-8.32v-10h32.45v10c-3.07,0-5.61,1.13-5.61,8.32v33.27c0,7.19,2.54,8.32,5.61,8.32v10Z" transform="translate(-150 -368.81)"/><path class="cls-1" d="M792.64,853.46v-10c3.16,0,5.7-1.13,5.7-8.32V795.54H793.6c-3.15,0-4.65.83-6,9l-.44,2.67H779l1.06-23.62h57.71L839,807.25h-9.12l-.44-2.67c-1.32-8.21-2.72-9-5.88-9h-4v39.74c0,7.09,2.46,8.22,5.62,8.22v10Z" transform="translate(-150 -368.81)"/></svg>